<svg xmlns="http://www.w3.org/2000/svg" viewBox="0 0 400 400">
  <rect width="400" height="400" rx="26" fill="#F3E8E0"/>
  <circle cx="52" cy="350" r="90" fill="#E3D2C4" opacity="0.5"/>
  <circle cx="360" cy="40" r="110" fill="#C9934F" opacity="0.16"/>
  <circle cx="360" cy="360" r="60" fill="#E3D2C4" opacity="0.4"/>
  <ellipse cx="200" cy="352" rx="128" ry="18" fill="#5C3A21" opacity="0.14"/>
  <ellipse cx="200" cy="212" rx="124" ry="116" fill="#E7B879"/>
  <ellipse cx="200" cy="212" rx="124" ry="116" fill="none" stroke="#C9934F" stroke-width="5"/>
  <g fill="#C9934F" opacity="0.3">
    <circle cx="150" cy="180" r="4"/><circle cx="230" cy="160" r="3.5"/><circle cx="260" cy="230" r="4"/>
    <circle cx="130" cy="240" r="3.5"/><circle cx="200" cy="290" r="4"/>
  </g>
  <g fill="#FFF8EE" stroke="#E7CFAE" stroke-width="2">
    <ellipse cx="160" cy="178" rx="12" ry="9" transform="rotate(-25 160 178)"/>
    <ellipse cx="232" cy="172" rx="11" ry="8" transform="rotate(18 232 172)"/>
    <ellipse cx="258" cy="228" rx="12" ry="9" transform="rotate(42 258 228)"/>
    <ellipse cx="168" cy="252" rx="11" ry="8" transform="rotate(-8 168 252)"/>
    <ellipse cx="204" cy="288" rx="11" ry="8" transform="rotate(25 204 288)"/>
    <ellipse cx="272" cy="190" rx="9" ry="7" transform="rotate(60 272 190)"/>
  </g>
  <g fill="#B96A1E" opacity="0.9">
    <path d="M150 205 q18 12 40 4" stroke="#B96A1E" stroke-width="5" fill="none" stroke-linecap="round"/>
    <path d="M262 190 q16 30 4 54" stroke="#B96A1E" stroke-width="5" fill="none" stroke-linecap="round"/>
  </g>
</svg>
